<svg width="24" height="24" viewBox="0 0 24 24" fill="none" xmlns="http://www.w3.org/2000/svg">
  <path d="M6 4H18C18.55 4 19 4.45 19 5V19C19 20.1 18.1 21 17 21H7C5.9 21 5 20.1 5 19V5C5 4.45 5.45 4 6 4Z" fill="#4CAF50" stroke="#000" stroke-width="2"/>
  <path d="M7 6V18C7 18.55 7.45 19 8 19H16C16.55 19 17 18.55 17 18V6H7Z" fill="#66BB6A"/>
  <circle cx="12" cy="8" r="1" fill="#81C784"/>
  <path d="M10 12H14" stroke="#2E7D32" stroke-width="1.5" stroke-linecap="round"/>
  <path d="M11 14H13" stroke="#2E7D32" stroke-width="1.5" stroke-linecap="round"/>
  <!-- Sparkle effects -->
  <path d="M20 6L22 4L20 2" stroke="#FFD700" stroke-width="2" stroke-linecap="round" stroke-linejoin="round"/>
  <path d="M21 8L23 6L21 4" stroke="#FFD700" stroke-width="1.5" stroke-linecap="round" stroke-linejoin="round"/>
  <path d="M19 10L21 8L19 6" stroke="#FFD700" stroke-width="1.5" stroke-linecap="round" stroke-linejoin="round"/>
</svg>
