<svg width="32" height="32" viewBox="0 0 32 32" fill="none" xmlns="http://www.w3.org/2000/svg">
  <!-- Outer orange star shape -->
  <path d="M16 2L20 8L28 8L22 14L24 22L16 18L8 22L10 14L4 8L12 8L16 2Z" fill="#FFB74D" stroke="#000" stroke-width="1"/>
  <!-- Inner yellow glow -->
  <path d="M16 4L19 9L26 9L21 13L23 19L16 16L9 19L11 13L6 9L13 9L16 4Z" fill="#FFD700"/>
  <!-- Central M letter -->
  <path d="M8 20L8 28L10 28L10 22L12 25L14 22L14 28L16 28L16 20L14 20L12 23L10 20L8 20Z" fill="#5D4037"/>
  <!-- Green leaf on top of M -->
  <path d="M15 18L16 16L17 18L16 20L15 18Z" fill="#81C784"/>
  <!-- Green fill in lower M with horizontal lines -->
  <rect x="10" y="24" width="4" height="4" fill="#81C784"/>
  <line x1="10" y1="25" x2="14" y2="25" stroke="#5D4037" stroke-width="0.5"/>
  <line x1="10" y1="26" x2="14" y2="26" stroke="#5D4037" stroke-width="0.5"/>
  <line x1="10" y1="27" x2="14" y2="27" stroke="#5D4037" stroke-width="0.5"/>
</svg>
